<svg width="471" height="410" viewBox="0 0 471 410" fill="none" xmlns="http://www.w3.org/2000/svg">
<rect width="471" height="410" rx="8" fill="white"/>
<g clip-path="url(#clip0_1404_16151)">
<path fill-rule="evenodd" clip-rule="evenodd" d="M113.828 188.78C111.758 182.29 107.69 176.62 102.204 172.581C96.7182 168.542 90.0961 166.341 83.2841 166.292C77.5247 166.259 71.8652 167.796 66.9136 170.737C61.9621 173.679 57.9056 177.914 55.1801 182.988C50.1708 183.886 45.5788 186.359 42.0724 190.047C38.5659 193.735 36.3281 198.446 35.6846 203.494C35.0411 208.543 36.0254 213.664 38.4945 218.114C40.9635 222.564 44.7882 226.11 49.4121 228.236L50.0121 228.508H50.0521V221.708C46.8801 219.761 44.3969 216.87 42.9505 213.441C41.5041 210.011 41.167 206.215 41.9864 202.585C42.8058 198.954 44.7408 195.671 47.5199 193.195C50.2991 190.72 53.7833 189.176 57.4841 188.78L59.1641 188.604L59.9001 187.092C61.9898 182.663 65.3005 178.923 69.4428 176.311C73.5852 173.699 78.3871 172.325 83.2841 172.348C89.1191 172.389 94.7728 174.38 99.3463 178.004C103.92 181.628 107.15 186.677 108.524 192.348L109.1 194.636H111.5C115.369 194.715 119.054 196.304 121.767 199.064C124.48 201.823 126.006 205.534 126.02 209.404C126.02 215.044 122.764 219.66 117.22 221.996V228.444L117.62 228.316C126.532 225.396 132.068 218.148 132.068 209.404C132.031 204.343 130.164 199.467 126.811 195.675C123.458 191.884 118.847 189.435 113.828 188.78ZM186.116 182.22H191.844C191.995 182.22 192.139 182.28 192.246 182.386C192.352 182.493 192.412 182.637 192.412 182.788V228.212C192.412 228.361 192.353 228.503 192.248 228.608C192.143 228.713 192.001 228.772 191.852 228.772H186.124C185.973 228.772 185.829 228.712 185.722 228.606C185.616 228.499 185.556 228.355 185.556 228.204V182.788C185.555 182.714 185.569 182.64 185.596 182.571C185.624 182.502 185.665 182.44 185.717 182.387C185.769 182.334 185.831 182.292 185.9 182.263C185.968 182.235 186.042 182.22 186.116 182.22ZM163.924 190.62C166.022 190.624 168.091 191.11 169.971 192.039C171.852 192.968 173.494 194.316 174.772 195.98C174.817 196.04 174.875 196.091 174.94 196.128C175.006 196.165 175.078 196.189 175.153 196.197C175.228 196.205 175.304 196.198 175.376 196.176C175.448 196.154 175.515 196.117 175.572 196.068L180.14 192.428C180.198 192.381 180.247 192.324 180.283 192.258C180.319 192.193 180.342 192.121 180.35 192.046C180.358 191.972 180.352 191.897 180.331 191.825C180.31 191.753 180.275 191.686 180.228 191.628C178.284 189.105 175.786 187.062 172.927 185.657C170.069 184.252 166.925 183.522 163.74 183.524C151.812 183.524 142.14 193.804 142.14 206.444C142.14 219.084 151.844 229.364 163.74 229.364C166.925 229.375 170.069 228.65 172.928 227.245C175.786 225.841 178.282 223.795 180.22 221.268C180.269 221.21 180.305 221.143 180.326 221.071C180.348 220.998 180.354 220.922 180.345 220.847C180.336 220.772 180.312 220.7 180.274 220.635C180.236 220.569 180.185 220.513 180.124 220.468L175.564 216.868C175.506 216.821 175.439 216.786 175.367 216.765C175.295 216.744 175.22 216.738 175.146 216.746C175.071 216.754 174.999 216.777 174.934 216.813C174.868 216.849 174.811 216.898 174.764 216.956C173.48 218.609 171.837 219.948 169.959 220.873C168.081 221.797 166.017 222.282 163.924 222.292C155.772 222.292 149.396 215.332 149.396 206.46C149.396 197.588 155.772 190.62 163.924 190.62ZM196.66 213.588C196.66 203.308 204.34 197.932 211.932 197.932C220.676 197.932 227.268 204.556 227.268 213.588C227.268 222.62 220.636 229.436 211.932 229.436C203.228 229.436 196.66 222.62 196.66 213.588ZM211.932 222.74C216.732 222.74 220.356 218.804 220.356 213.588C220.356 208.476 216.692 204.628 211.932 204.628C207.172 204.628 203.58 208.372 203.58 213.588C203.58 218.804 207.132 222.74 211.932 222.74ZM258.14 198.588H252.412C252.338 198.587 252.264 198.601 252.195 198.628C252.126 198.656 252.064 198.697 252.011 198.749C251.958 198.801 251.916 198.863 251.887 198.932C251.859 199 251.844 199.074 251.844 199.148V214.348C251.844 220.284 247.748 222.388 244.236 222.388C241.132 222.388 238.004 220.044 238.004 214.804V199.148C238.004 199.074 237.989 199 237.961 198.932C237.932 198.863 237.89 198.801 237.837 198.749C237.784 198.697 237.722 198.656 237.653 198.628C237.584 198.601 237.51 198.587 237.436 198.588H231.708C231.56 198.588 231.417 198.647 231.312 198.752C231.207 198.857 231.148 199 231.148 199.148V215.548C231.148 224.548 235.22 229.5 242.62 229.5C245.308 229.5 249.66 227.956 251.292 224.548L251.844 224.66V228.212C251.844 228.363 251.904 228.507 252.01 228.614C252.117 228.72 252.261 228.78 252.412 228.78H258.14C258.291 228.78 258.435 228.72 258.542 228.614C258.648 228.507 258.708 228.363 258.708 228.212V199.148C258.708 199.074 258.693 199 258.665 198.932C258.636 198.863 258.594 198.801 258.541 198.749C258.488 198.697 258.426 198.656 258.357 198.628C258.288 198.601 258.214 198.587 258.14 198.588ZM287.58 182.22H293.316C293.39 182.22 293.464 182.235 293.532 182.263C293.601 182.292 293.663 182.334 293.715 182.387C293.767 182.44 293.808 182.502 293.836 182.571C293.863 182.64 293.877 182.714 293.876 182.788V228.212C293.877 228.286 293.863 228.36 293.836 228.429C293.808 228.498 293.767 228.56 293.715 228.613C293.663 228.666 293.601 228.708 293.532 228.737C293.464 228.765 293.39 228.78 293.316 228.78H287.58C287.506 228.78 287.432 228.765 287.364 228.737C287.295 228.708 287.233 228.666 287.181 228.613C287.129 228.56 287.088 228.498 287.06 228.429C287.033 228.36 287.019 228.286 287.02 228.212V224.148L286.668 224.724C284.564 228.18 280.236 229.412 277.164 229.412C269.1 229.412 263.012 222.628 263.012 213.628C263.012 203.308 270.1 197.908 277.108 197.908C281.172 197.908 284.924 199.724 286.668 202.532L287.02 203.092V182.788C287.019 182.714 287.033 182.64 287.06 182.571C287.088 182.502 287.129 182.44 287.181 182.387C287.233 182.334 287.295 182.292 287.364 182.263C287.432 182.235 287.506 182.22 287.58 182.22ZM286.349 216.998C286.762 215.91 286.954 214.751 286.916 213.588H286.892C286.935 211.265 286.058 209.019 284.451 207.34C282.844 205.662 280.639 204.687 278.316 204.628C273.628 204.628 269.956 208.5 269.956 213.588C269.956 218.676 273.628 222.676 278.316 222.676C279.479 222.65 280.626 222.394 281.69 221.922C282.753 221.45 283.713 220.772 284.513 219.927C285.312 219.082 285.937 218.086 286.349 216.998ZM301.9 198.588H307.628C307.777 198.588 307.919 198.647 308.024 198.752C308.129 198.857 308.188 198.999 308.188 199.148V228.212C308.188 228.361 308.129 228.503 308.024 228.608C307.919 228.713 307.777 228.772 307.628 228.772H301.9C301.749 228.772 301.605 228.712 301.498 228.606C301.392 228.499 301.332 228.355 301.332 228.204V199.148C301.334 198.999 301.395 198.856 301.501 198.752C301.608 198.647 301.751 198.588 301.9 198.588ZM303.053 183.451C303.605 183.233 304.195 183.127 304.788 183.14C305.379 183.126 305.966 183.231 306.515 183.45C307.063 183.668 307.562 183.996 307.982 184.412C308.401 184.828 308.731 185.325 308.954 185.872C309.176 186.419 309.286 187.005 309.276 187.596C309.28 188.185 309.167 188.77 308.943 189.315C308.718 189.86 308.388 190.355 307.97 190.771C307.552 191.186 307.055 191.515 306.509 191.736C305.962 191.957 305.377 192.067 304.788 192.06C303.593 192.071 302.442 191.607 301.589 190.77C300.735 189.933 300.249 188.791 300.236 187.596C300.236 187.003 300.354 186.415 300.584 185.868C300.814 185.321 301.151 184.826 301.575 184.411C301.999 183.996 302.502 183.669 303.053 183.451ZM331.78 197.932C329.268 197.932 324.804 199.284 323.1 202.884L322.548 202.772V199.148C322.548 199.074 322.533 199 322.505 198.932C322.476 198.863 322.434 198.801 322.381 198.749C322.328 198.697 322.266 198.656 322.197 198.628C322.128 198.601 322.054 198.587 321.98 198.588H316.252C316.104 198.588 315.961 198.647 315.856 198.752C315.751 198.857 315.692 199 315.692 199.148V228.212C315.691 228.286 315.705 228.36 315.732 228.429C315.76 228.498 315.801 228.56 315.853 228.613C315.905 228.666 315.967 228.708 316.036 228.737C316.104 228.765 316.178 228.78 316.252 228.78H321.98C322.131 228.78 322.275 228.72 322.382 228.614C322.488 228.507 322.548 228.363 322.548 228.212V213.012C322.548 207.124 326.644 205.012 330.156 205.012C333.26 205.012 336.388 207.34 336.388 212.532V228.212C336.388 228.363 336.448 228.507 336.554 228.614C336.661 228.72 336.805 228.78 336.956 228.78H342.7C342.851 228.78 342.995 228.72 343.102 228.614C343.208 228.507 343.268 228.363 343.268 228.212V211.82C343.252 202.868 339.172 197.932 331.78 197.932ZM371.756 198.588H377.484C377.627 198.596 377.761 198.659 377.859 198.763C377.958 198.867 378.012 199.005 378.012 199.148V228.212C378.013 228.286 377.999 228.36 377.972 228.429C377.944 228.498 377.903 228.56 377.851 228.613C377.799 228.666 377.737 228.708 377.668 228.737C377.6 228.765 377.526 228.78 377.452 228.78H371.724C371.573 228.78 371.429 228.72 371.322 228.614C371.216 228.507 371.156 228.363 371.156 228.212V224.204L370.812 224.78C368.7 228.236 364.372 229.468 361.308 229.468C353.236 229.468 347.148 222.684 347.148 213.684C347.148 203.364 354.244 197.964 361.244 197.964C365.34 197.964 369.092 199.78 370.844 202.588L371.188 203.148V199.148C371.188 199.074 371.203 199 371.231 198.932C371.26 198.863 371.302 198.801 371.355 198.749C371.408 198.697 371.47 198.656 371.539 198.628C371.608 198.601 371.682 198.587 371.756 198.588ZM370.515 217.004C370.929 215.914 371.122 214.753 371.084 213.588H371.068C371.111 211.259 370.229 209.009 368.615 207.329C367.002 205.65 364.788 204.678 362.46 204.628C357.772 204.628 354.108 208.5 354.108 213.588C354.108 218.676 357.772 222.676 362.46 222.676C363.625 222.653 364.775 222.399 365.841 221.929C366.908 221.458 367.87 220.781 368.672 219.935C369.474 219.09 370.101 218.093 370.515 217.004ZM403.62 198.692C402.314 198.163 400.918 197.891 399.508 197.892C395.7 197.892 392.932 200.172 391.508 204.492L390.996 204.42V199.148C390.996 199.074 390.981 199 390.953 198.932C390.924 198.863 390.882 198.801 390.829 198.749C390.776 198.697 390.714 198.656 390.645 198.628C390.576 198.601 390.502 198.587 390.428 198.588H384.7C384.626 198.587 384.552 198.601 384.483 198.628C384.414 198.656 384.352 198.697 384.299 198.749C384.246 198.801 384.204 198.863 384.175 198.932C384.147 199 384.132 199.074 384.132 199.148V228.212C384.132 228.363 384.192 228.507 384.298 228.614C384.405 228.72 384.549 228.78 384.7 228.78H390.492C390.566 228.78 390.64 228.765 390.708 228.737C390.777 228.708 390.839 228.666 390.891 228.613C390.943 228.56 390.984 228.498 391.012 228.429C391.039 228.36 391.053 228.286 391.052 228.212V218.292C391.052 206.452 395.78 204.692 398.604 204.692C399.796 204.695 400.974 204.94 402.068 205.412C402.144 205.448 402.228 205.466 402.312 205.466C402.396 205.466 402.48 205.448 402.556 205.412C402.63 205.373 402.693 205.319 402.743 205.252C402.793 205.186 402.828 205.109 402.844 205.028L403.98 199.34C404.008 199.207 403.986 199.068 403.92 198.949C403.854 198.83 403.748 198.739 403.62 198.692ZM435.2 198.651C435.283 198.695 435.353 198.758 435.404 198.836C435.459 198.915 435.492 199.006 435.5 199.102C435.508 199.197 435.492 199.293 435.452 199.38L417.964 243.38C417.925 243.486 417.854 243.577 417.761 243.642C417.668 243.706 417.557 243.741 417.444 243.74H411.444C411.349 243.742 411.254 243.719 411.17 243.675C411.085 243.63 411.013 243.565 410.96 243.485C410.908 243.405 410.876 243.313 410.868 243.218C410.861 243.123 410.877 243.027 410.916 242.94L417.1 226.868L405.9 199.364C405.865 199.278 405.852 199.185 405.862 199.093C405.871 199.001 405.904 198.913 405.956 198.836C406.007 198.759 406.076 198.696 406.157 198.653C406.238 198.61 406.328 198.587 406.42 198.588H412.708C412.822 198.589 412.933 198.624 413.027 198.688C413.121 198.752 413.193 198.843 413.236 198.948L420.772 218.292L428.236 198.948C428.279 198.843 428.352 198.752 428.446 198.688C428.54 198.624 428.65 198.589 428.764 198.588H434.932C435.025 198.586 435.117 198.608 435.2 198.651ZM72.884 229.052L71.556 227.724C70.6624 226.827 70.1592 225.614 70.156 224.348V204.348C70.1581 204.277 70.1877 204.21 70.2385 204.161C70.2892 204.112 70.3572 204.084 70.428 204.084H72.7C72.7515 204.083 72.8015 204.067 72.8439 204.038C72.8864 204.009 72.9194 203.968 72.939 203.92C72.9585 203.873 72.9637 203.821 72.954 203.77C72.9442 203.719 72.9199 203.673 72.884 203.636L63.996 194.74C63.9715 194.715 63.9422 194.695 63.9099 194.682C63.8776 194.668 63.843 194.661 63.808 194.661C63.773 194.661 63.7384 194.668 63.7061 194.682C63.6738 194.695 63.6446 194.715 63.62 194.74L54.724 203.636C54.6877 203.673 54.6632 203.721 54.6537 203.772C54.6442 203.823 54.6501 203.876 54.6707 203.924C54.6912 203.972 54.7255 204.013 54.7691 204.041C54.8128 204.07 54.8639 204.085 54.916 204.084H57.156C57.226 204.084 57.2932 204.112 57.3427 204.161C57.3922 204.211 57.42 204.278 57.42 204.348V224.7C57.42 225.973 57.9257 227.194 58.8259 228.094C59.7261 228.994 60.947 229.5 62.22 229.5H72.7C72.7515 229.499 72.8015 229.483 72.8439 229.454C72.8864 229.425 72.9194 229.384 72.939 229.336C72.9585 229.289 72.9637 229.237 72.954 229.186C72.9442 229.135 72.9199 229.089 72.884 229.052ZM91.212 227.724L92.548 229.052C92.5844 229.089 92.6088 229.137 92.6183 229.188C92.6278 229.239 92.6219 229.292 92.6014 229.34C92.5808 229.388 92.5466 229.429 92.5029 229.457C92.4593 229.486 92.4081 229.501 92.356 229.5H81.9C80.627 229.5 79.4061 228.994 78.5059 228.094C77.6057 227.194 77.1 225.973 77.1 224.7V209.492C77.1 209.421 77.0725 209.353 77.0232 209.302C76.9739 209.252 76.9068 209.222 76.836 209.22H74.572C74.5206 209.219 74.4706 209.203 74.4281 209.174C74.3857 209.145 74.3526 209.104 74.3331 209.056C74.3135 209.009 74.3083 208.957 74.3181 208.906C74.3278 208.855 74.3521 208.809 74.388 208.772L83.276 199.892C83.3006 199.867 83.3298 199.847 83.3621 199.834C83.3944 199.82 83.429 199.813 83.464 199.813C83.499 199.813 83.5336 199.82 83.5659 199.834C83.5982 199.847 83.6275 199.867 83.652 199.892L92.548 208.756C92.5844 208.793 92.6088 208.841 92.6183 208.892C92.6278 208.943 92.6219 208.996 92.6014 209.044C92.5808 209.092 92.5466 209.133 92.5029 209.161C92.4593 209.19 92.4081 209.205 92.356 209.204H90.084C90.0133 209.206 89.9461 209.236 89.8968 209.286C89.8475 209.337 89.82 209.405 89.82 209.476V224.348C89.8211 225.613 90.3214 226.826 91.212 227.724ZM112.204 229.052L110.876 227.724C109.982 226.827 109.479 225.614 109.476 224.348V214.596C109.476 214.526 109.504 214.459 109.553 214.409C109.603 214.36 109.67 214.332 109.74 214.332H112.02C112.073 214.333 112.125 214.317 112.169 214.288C112.214 214.258 112.248 214.216 112.268 214.167C112.288 214.118 112.292 214.063 112.281 214.012C112.269 213.96 112.243 213.912 112.204 213.876L103.308 204.988C103.284 204.963 103.256 204.944 103.224 204.93C103.192 204.917 103.158 204.91 103.124 204.91C103.09 204.91 103.056 204.917 103.024 204.93C102.993 204.944 102.964 204.963 102.94 204.988L94.0441 213.876C94.0054 213.912 93.9787 213.96 93.9673 214.012C93.956 214.063 93.9605 214.118 93.9804 214.167C94.0003 214.216 94.0345 214.258 94.0787 214.288C94.1229 214.317 94.1749 214.333 94.2281 214.332H96.468C96.5381 214.332 96.6052 214.36 96.6547 214.409C96.7042 214.459 96.7321 214.526 96.7321 214.596V224.7C96.7321 225.973 97.2378 227.194 98.1379 228.094C99.0381 228.994 100.259 229.5 101.532 229.5H112.02C112.071 229.499 112.122 229.483 112.164 229.454C112.206 229.425 112.239 229.384 112.259 229.336C112.279 229.289 112.284 229.237 112.274 229.186C112.264 229.135 112.24 229.089 112.204 229.052Z" fill="#3448C5"/>
</g>
<defs>
<clipPath id="clip0_1404_16151">
<rect width="400" height="77.416" fill="white" transform="translate(35.5 166.292)"/>
</clipPath>
</defs>
</svg>
